<?xml version="1.0" encoding="UTF-8" standalone="no"?>
<!DOCTYPE svg PUBLIC "-//W3C//DTD SVG 1.1//EN"
 "http://www.w3.org/Graphics/SVG/1.1/DTD/svg11.dtd">
<!-- Generated by graphviz version 2.47.3 (20210619.1520)
 -->
<!-- Title: dbml Pages: 1 -->
<svg width="1334pt" height="586pt"
 viewBox="0.00 0.00 1333.86 586.07" xmlns="http://www.w3.org/2000/svg" xmlns:xlink="http://www.w3.org/1999/xlink">
<g id="graph0" class="graph" transform="scale(1 1) rotate(0) translate(4 582.07)">
<title>dbml</title>
<!-- module_type -->
<g id="module_type" class="node">
<title>module_type</title>
<ellipse fill="none" stroke="black" stroke-width="0" cx="961.71" cy="-176.7" rx="129.54" ry="27.31"/>
<text text-anchor="middle" x="961.71" y="-167.1" font-family="Helvetica,sans-Serif" font-size="32.00" fill="#29235c">module_type</text>
</g>
<!-- User -->
<g id="User" class="node">
<title>User</title>
<ellipse fill="none" stroke="black" stroke-width="0" cx="493.63" cy="-320.7" rx="47.52" ry="27.31"/>
<text text-anchor="middle" x="493.63" y="-311.1" font-family="Helvetica,sans-Serif" font-size="32.00" fill="#29235c">User</text>
</g>
<!-- UserPreferences -->
<g id="UserPreferences" class="node">
<title>UserPreferences</title>
<ellipse fill="none" stroke="black" stroke-width="0" cx="169.72" cy="-464.7" rx="169.95" ry="27.31"/>
<text text-anchor="middle" x="169.72" y="-455.1" font-family="Helvetica,sans-Serif" font-size="32.00" fill="#29235c">UserPreferences</text>
</g>
<!-- UserPreferences&#45;&gt;User -->
<!-- UserPreferences&#45;&gt;User -->
<g id="edge2" class="edge">
<title>UserPreferences:e&#45;&gt;User:w</title>
<path fill="none" stroke="#29235c" stroke-width="3" d="M308.93,-449.04C319.42,-445.73 329.7,-441.96 339.45,-437.7 387.62,-416.64 436,-379.15 465.14,-352.09"/>
<polygon fill="#29235c" stroke="#29235c" stroke-width="3" points="467.65,-354.54 472.48,-345.11 462.82,-349.47 467.65,-354.54"/>
<text text-anchor="middle" x="463.58" y="-354.71" font-family="Helvetica,sans-Serif" font-size="32.00" fill="#29235c">1</text>
<text text-anchor="middle" x="317.82" y="-420.24" font-family="Helvetica,sans-Serif" font-size="32.00" fill="#29235c">1</text>
</g>
<!-- Path -->
<g id="Path" class="node">
<title>Path</title>
<ellipse fill="none" stroke="black" stroke-width="0" cx="961.71" cy="-316.7" rx="46.57" ry="27.31"/>
<text text-anchor="middle" x="961.71" y="-307.1" font-family="Helvetica,sans-Serif" font-size="32.00" fill="#29235c">Path</text>
</g>
<!-- Character -->
<g id="Character" class="node">
<title>Character</title>
<ellipse fill="none" stroke="black" stroke-width="0" cx="1226.54" cy="-316.7" rx="99.13" ry="27.31"/>
<text text-anchor="middle" x="1226.54" y="-307.1" font-family="Helvetica,sans-Serif" font-size="32.00" fill="#29235c">Character</text>
</g>
<!-- Path&#45;&gt;Character -->
<!-- Path&#45;&gt;Character -->
<g id="edge4" class="edge">
<title>Path:e&#45;&gt;Character:w</title>
<path fill="none" stroke="#29235c" stroke-width="3" d="M1007.59,-321.93C1038.34,-323.22 1080.48,-323.69 1119.51,-323.34"/>
<polygon fill="#29235c" stroke="#29235c" stroke-width="3" points="1119.93,-326.83 1129.89,-323.22 1119.85,-319.83 1119.93,-326.83"/>
<text text-anchor="middle" x="1120.99" y="-332.82" font-family="Helvetica,sans-Serif" font-size="32.00" fill="#29235c">1</text>
<text text-anchor="middle" x="1016.48" y="-331.53" font-family="Helvetica,sans-Serif" font-size="32.00" fill="#29235c">1</text>
</g>
<!-- UserPath -->
<g id="UserPath" class="node">
<title>UserPath</title>
<ellipse fill="none" stroke="black" stroke-width="0" cx="169.72" cy="-536.7" rx="94.09" ry="27.31"/>
<text text-anchor="middle" x="169.72" y="-527.1" font-family="Helvetica,sans-Serif" font-size="32.00" fill="#29235c">UserPath</text>
</g>
<!-- UserPath&#45;&gt;User -->
<!-- UserPath&#45;&gt;User -->
<g id="edge6" class="edge">
<title>UserPath:e&#45;&gt;User:w</title>
<path fill="none" stroke="#29235c" stroke-width="3" d="M263.65,-539.67C290.06,-534.88 317.56,-525.69 339.45,-509.7 365.49,-490.68 355.86,-472.32 375.45,-446.7 402.19,-411.72 438.88,-376.72 464.04,-352.31"/>
<polygon fill="#29235c" stroke="#29235c" stroke-width="3" points="466.73,-354.58 471.45,-345.09 461.85,-349.56 466.73,-354.58"/>
<text text-anchor="middle" x="480.35" y="-354.69" font-family="Helvetica,sans-Serif" font-size="32.00" fill="#29235c">1</text>
<text text-anchor="middle" x="269.88" y="-549.27" font-family="Helvetica,sans-Serif" font-size="32.00" fill="#29235c">*</text>
</g>
<!-- UserPath&#45;&gt;Path -->
<!-- UserPath&#45;&gt;Path -->
<g id="edge8" class="edge">
<title>UserPath:e&#45;&gt;Path:w</title>
<path fill="none" stroke="#29235c" stroke-width="3" d="M259.03,-527.83C285.03,-522.7 313.47,-516.31 339.45,-509.7 556.74,-454.43 812.28,-373.68 914.78,-336.39"/>
<polygon fill="#29235c" stroke="#29235c" stroke-width="3" points="916.04,-339.66 924.22,-332.92 913.63,-333.09 916.04,-339.66"/>
<text text-anchor="middle" x="915.32" y="-342.52" font-family="Helvetica,sans-Serif" font-size="32.00" fill="#29235c">1</text>
<text text-anchor="middle" x="265.25" y="-508.63" font-family="Helvetica,sans-Serif" font-size="32.00" fill="#29235c">*</text>
</g>
<!-- Concept -->
<g id="Concept" class="node">
<title>Concept</title>
<ellipse fill="none" stroke="black" stroke-width="0" cx="493.63" cy="-104.7" rx="84" ry="27.31"/>
<text text-anchor="middle" x="493.63" y="-95.1" font-family="Helvetica,sans-Serif" font-size="32.00" fill="#29235c">Concept</text>
</g>
<!-- Module -->
<g id="Module" class="node">
<title>Module</title>
<ellipse fill="none" stroke="black" stroke-width="0" cx="722" cy="-176.7" rx="74.36" ry="27.31"/>
<text text-anchor="middle" x="722" y="-167.1" font-family="Helvetica,sans-Serif" font-size="32.00" fill="#29235c">Module</text>
</g>
<!-- Concept&#45;&gt;Module -->
<!-- Concept&#45;&gt;Module -->
<g id="edge10" class="edge">
<title>Concept:e&#45;&gt;Module:w</title>
<path fill="none" stroke="#29235c" stroke-width="3" d="M541.75,-127.15C563.16,-134.47 588.8,-142.37 611.82,-149.7 623.11,-153.3 635.04,-157.16 646.7,-160.86"/>
<polygon fill="#29235c" stroke="#29235c" stroke-width="3" points="645.82,-164.26 656.41,-163.93 647.93,-157.58 645.82,-164.26"/>
<text text-anchor="middle" x="647.52" y="-135.13" font-family="Helvetica,sans-Serif" font-size="32.00" fill="#29235c">1</text>
<text text-anchor="middle" x="532.85" y="-136.75" font-family="Helvetica,sans-Serif" font-size="32.00" fill="#29235c">1</text>
</g>
<!-- UserConcepts -->
<g id="UserConcepts" class="node">
<title>UserConcepts</title>
<ellipse fill="none" stroke="black" stroke-width="0" cx="169.72" cy="-104.7" rx="143.15" ry="27.31"/>
<text text-anchor="middle" x="169.72" y="-95.1" font-family="Helvetica,sans-Serif" font-size="32.00" fill="#29235c">UserConcepts</text>
</g>
<!-- UserConcepts&#45;&gt;User -->
<!-- UserConcepts&#45;&gt;User -->
<g id="edge12" class="edge">
<title>UserConcepts:e&#45;&gt;User:w</title>
<path fill="none" stroke="#29235c" stroke-width="3" d="M280.49,-122.1C301.59,-127.88 322.39,-136.5 339.45,-149.7 367.74,-171.6 353.94,-193.11 375.45,-221.7 396.8,-250.08 426.2,-277.16 450.21,-295.96"/>
<polygon fill="#29235c" stroke="#29235c" stroke-width="3" points="448.39,-298.97 458.46,-302.26 452.63,-293.41 448.39,-298.97"/>
<text text-anchor="middle" x="449.56" y="-273.46" font-family="Helvetica,sans-Serif" font-size="32.00" fill="#29235c">1</text>
<text text-anchor="middle" x="274.26" y="-131.7" font-family="Helvetica,sans-Serif" font-size="32.00" fill="#29235c">*</text>
</g>
<!-- UserConcepts&#45;&gt;Concept -->
<!-- UserConcepts&#45;&gt;Concept -->
<g id="edge14" class="edge">
<title>UserConcepts:e&#45;&gt;Concept:w</title>
<path fill="none" stroke="#29235c" stroke-width="3" d="M308.64,-111.39C339.94,-111.56 372.42,-111.38 401.22,-110.86"/>
<polygon fill="#29235c" stroke="#29235c" stroke-width="3" points="401.32,-114.36 411.24,-110.66 401.18,-107.36 401.32,-114.36"/>
<text text-anchor="middle" x="402.35" y="-120.26" font-family="Helvetica,sans-Serif" font-size="32.00" fill="#29235c">1</text>
<text text-anchor="middle" x="314.87" y="-111.39" font-family="Helvetica,sans-Serif" font-size="32.00" fill="#29235c">*</text>
</g>
<!-- Module&#45;&gt;module_type -->
<g id="edge43" class="edge">
<title>Module:e&#45;&gt;module_type:w</title>
<path fill="none" stroke="#29235c" stroke-width="3" d="M796.26,-176.7C807.72,-176.7 819.85,-176.7 832.11,-176.7"/>
</g>
<!-- Module&#45;&gt;Path -->
<!-- Module&#45;&gt;Path -->
<g id="edge18" class="edge">
<title>Module:e&#45;&gt;Path:w</title>
<path fill="none" stroke="#29235c" stroke-width="3" d="M756.06,-201.01C797.55,-227.78 868.94,-270.02 915.47,-295.5"/>
<polygon fill="#29235c" stroke="#29235c" stroke-width="3" points="913.98,-298.66 924.43,-300.36 917.31,-292.51 913.98,-298.66"/>
<text text-anchor="middle" x="915.54" y="-271.56" font-family="Helvetica,sans-Serif" font-size="32.00" fill="#29235c">1</text>
<text text-anchor="middle" x="762.28" y="-210.61" font-family="Helvetica,sans-Serif" font-size="32.00" fill="#29235c">*</text>
</g>
<!-- Module&#45;&gt;Module -->
<!-- Module&#45;&gt;Module -->
<g id="edge16" class="edge">
<title>Module:e&#45;&gt;Module:w</title>
<path fill="none" stroke="#29235c" stroke-width="3" d="M685.52,-200.35C670.43,-219.73 682.59,-239.85 722,-239.85 755.26,-239.85 769.11,-225.53 763.57,-209.41"/>
<polygon fill="#29235c" stroke="#29235c" stroke-width="3" points="766.43,-207.36 758.49,-200.35 760.32,-210.78 766.43,-207.36"/>
<text text-anchor="middle" x="749.6" y="-209.95" font-family="Helvetica,sans-Serif" font-size="32.00" fill="#29235c">1</text>
<text text-anchor="middle" x="679.3" y="-209.95" font-family="Helvetica,sans-Serif" font-size="32.00" fill="#29235c">*</text>
</g>
<!-- UserModule -->
<g id="UserModule" class="node">
<title>UserModule</title>
<ellipse fill="none" stroke="black" stroke-width="0" cx="169.72" cy="-248.7" rx="121.88" ry="27.31"/>
<text text-anchor="middle" x="169.72" y="-239.1" font-family="Helvetica,sans-Serif" font-size="32.00" fill="#29235c">UserModule</text>
</g>
<!-- UserModule&#45;&gt;User -->
<!-- UserModule&#45;&gt;User -->
<g id="edge20" class="edge">
<title>UserModule:e&#45;&gt;User:w</title>
<path fill="none" stroke="#29235c" stroke-width="3" d="M238.93,-271.15C269.68,-278.42 306.42,-286.3 339.45,-293.7 371.52,-300.89 407.28,-309.27 436.18,-315.21"/>
<polygon fill="#29235c" stroke="#29235c" stroke-width="3" points="435.61,-318.66 446.1,-317.2 436.98,-311.8 435.61,-318.66"/>
<text text-anchor="middle" x="437.21" y="-326.8" font-family="Helvetica,sans-Serif" font-size="32.00" fill="#29235c">1</text>
<text text-anchor="middle" x="245.15" y="-271.15" font-family="Helvetica,sans-Serif" font-size="32.00" fill="#29235c">*</text>
</g>
<!-- UserModule&#45;&gt;Module -->
<!-- UserModule&#45;&gt;Module -->
<g id="edge22" class="edge">
<title>UserModule:e&#45;&gt;Module:w</title>
<path fill="none" stroke="#29235c" stroke-width="3" d="M289.74,-254.04C379.12,-252.2 504.14,-243.53 611.82,-221.7 632.31,-217.55 654.31,-210.77 673.16,-203.59"/>
<polygon fill="#29235c" stroke="#29235c" stroke-width="3" points="674.69,-206.75 682.7,-199.81 672.11,-200.24 674.69,-206.75"/>
<text text-anchor="middle" x="691.59" y="-209.41" font-family="Helvetica,sans-Serif" font-size="32.00" fill="#29235c">1</text>
<text text-anchor="middle" x="295.96" y="-263.64" font-family="Helvetica,sans-Serif" font-size="32.00" fill="#29235c">*</text>
</g>
<!-- Assignment -->
<g id="Assignment" class="node">
<title>Assignment</title>
<ellipse fill="none" stroke="black" stroke-width="0" cx="493.63" cy="-176.7" rx="118.38" ry="27.31"/>
<text text-anchor="middle" x="493.63" y="-167.1" font-family="Helvetica,sans-Serif" font-size="32.00" fill="#29235c">Assignment</text>
</g>
<!-- Assignment&#45;&gt;Module -->
<!-- Assignment&#45;&gt;Module -->
<g id="edge24" class="edge">
<title>Assignment:e&#45;&gt;Module:w</title>
<path fill="none" stroke="#29235c" stroke-width="3" d="M608.15,-183.45C618.74,-183.45 629.33,-183.37 639.54,-183.21"/>
<polygon fill="#29235c" stroke="#29235c" stroke-width="3" points="639.68,-186.71 649.61,-183.03 639.55,-179.71 639.68,-186.71"/>
<text text-anchor="middle" x="640.72" y="-192.63" font-family="Helvetica,sans-Serif" font-size="32.00" fill="#29235c">1</text>
<text text-anchor="middle" x="614.37" y="-193.05" font-family="Helvetica,sans-Serif" font-size="32.00" fill="#29235c">*</text>
</g>
<!-- AssignmentFile -->
<g id="AssignmentFile" class="node">
<title>AssignmentFile</title>
<ellipse fill="none" stroke="black" stroke-width="0" cx="169.72" cy="-176.7" rx="154.76" ry="27.31"/>
<text text-anchor="middle" x="169.72" y="-167.1" font-family="Helvetica,sans-Serif" font-size="32.00" fill="#29235c">AssignmentFile</text>
</g>
<!-- AssignmentFile&#45;&gt;User -->
<!-- AssignmentFile&#45;&gt;User -->
<g id="edge26" class="edge">
<title>AssignmentFile:e&#45;&gt;User:w</title>
<path fill="none" stroke="#29235c" stroke-width="3" d="M263.89,-198.25C289.06,-203.94 315.85,-211.38 339.45,-221.7 381.83,-240.23 424.37,-271.48 453.83,-294.07"/>
<polygon fill="#29235c" stroke="#29235c" stroke-width="3" points="451.72,-296.86 461.78,-300.19 455.99,-291.32 451.72,-296.86"/>
<text text-anchor="middle" x="470.68" y="-271.39" font-family="Helvetica,sans-Serif" font-size="32.00" fill="#29235c">1</text>
<text text-anchor="middle" x="270.12" y="-198.25" font-family="Helvetica,sans-Serif" font-size="32.00" fill="#29235c">*</text>
</g>
<!-- AssignmentFile&#45;&gt;Assignment -->
<!-- AssignmentFile&#45;&gt;Assignment -->
<g id="edge28" class="edge">
<title>AssignmentFile:e&#45;&gt;Assignment:w</title>
<path fill="none" stroke="#29235c" stroke-width="3" d="M319.9,-183.44C336.09,-183.48 352.44,-183.43 368.29,-183.29"/>
<polygon fill="#29235c" stroke="#29235c" stroke-width="3" points="368.66,-186.79 378.62,-183.19 368.59,-179.79 368.66,-186.79"/>
<text text-anchor="middle" x="369.73" y="-192.79" font-family="Helvetica,sans-Serif" font-size="32.00" fill="#29235c">1</text>
<text text-anchor="middle" x="326.12" y="-193.04" font-family="Helvetica,sans-Serif" font-size="32.00" fill="#29235c">*</text>
</g>
<!-- Lesson -->
<g id="Lesson" class="node">
<title>Lesson</title>
<ellipse fill="none" stroke="black" stroke-width="0" cx="493.63" cy="-32.7" rx="72.88" ry="27.31"/>
<text text-anchor="middle" x="493.63" y="-23.1" font-family="Helvetica,sans-Serif" font-size="32.00" fill="#29235c">Lesson</text>
</g>
<!-- Lesson&#45;&gt;Module -->
<!-- Lesson&#45;&gt;Module -->
<g id="edge30" class="edge">
<title>Lesson:e&#45;&gt;Module:w</title>
<path fill="none" stroke="#29235c" stroke-width="3" d="M547.07,-51.38C568.16,-57.65 592.1,-65.9 611.82,-77.7 640.96,-95.13 668.13,-121.95 688.08,-143.39"/>
<polygon fill="#29235c" stroke="#29235c" stroke-width="3" points="685.75,-146.03 695.09,-151.02 690.9,-141.29 685.75,-146.03"/>
<text text-anchor="middle" x="686.2" y="-122.22" font-family="Helvetica,sans-Serif" font-size="32.00" fill="#29235c">1</text>
<text text-anchor="middle" x="553.29" y="-51.38" font-family="Helvetica,sans-Serif" font-size="32.00" fill="#29235c">*</text>
</g>
<!-- StorySection -->
<g id="StorySection" class="node">
<title>StorySection</title>
<ellipse fill="none" stroke="black" stroke-width="0" cx="169.72" cy="-32.7" rx="128" ry="27.31"/>
<text text-anchor="middle" x="169.72" y="-23.1" font-family="Helvetica,sans-Serif" font-size="32.00" fill="#29235c">StorySection</text>
</g>
<!-- StorySection&#45;&gt;Concept -->
<!-- StorySection&#45;&gt;Concept -->
<g id="edge34" class="edge">
<title>StorySection:e&#45;&gt;Concept:w</title>
<path fill="none" stroke="#29235c" stroke-width="3" d="M240.16,-55.44C270.65,-62.63 306.86,-70.4 339.45,-77.7 360.83,-82.5 383.85,-87.82 405.39,-92.59"/>
<polygon fill="#29235c" stroke="#29235c" stroke-width="3" points="404.65,-96.01 415.17,-94.75 406.15,-89.18 404.65,-96.01"/>
<text text-anchor="middle" x="406.27" y="-65.95" font-family="Helvetica,sans-Serif" font-size="32.00" fill="#29235c">1</text>
<text text-anchor="middle" x="249.05" y="-55.44" font-family="Helvetica,sans-Serif" font-size="32.00" fill="#29235c">1</text>
</g>
<!-- StorySection&#45;&gt;Lesson -->
<!-- StorySection&#45;&gt;Lesson -->
<g id="edge32" class="edge">
<title>StorySection:e&#45;&gt;Lesson:w</title>
<path fill="none" stroke="#29235c" stroke-width="3" d="M294.26,-39.29C333.64,-39.64 376.18,-39.43 411.73,-38.65"/>
<polygon fill="#29235c" stroke="#29235c" stroke-width="3" points="412.13,-42.14 422.04,-38.4 411.96,-35.14 412.13,-42.14"/>
<text text-anchor="middle" x="413.15" y="-9.6" font-family="Helvetica,sans-Serif" font-size="32.00" fill="#29235c">1</text>
<text text-anchor="middle" x="300.48" y="-48.89" font-family="Helvetica,sans-Serif" font-size="32.00" fill="#29235c">*</text>
</g>
<!-- Friends -->
<g id="Friends" class="node">
<title>Friends</title>
<ellipse fill="none" stroke="black" stroke-width="0" cx="169.72" cy="-392.7" rx="75.35" ry="27.31"/>
<text text-anchor="middle" x="169.72" y="-383.1" font-family="Helvetica,sans-Serif" font-size="32.00" fill="#29235c">Friends</text>
</g>
<!-- Friends&#45;&gt;User -->
<!-- Friends&#45;&gt;User -->
<g id="edge36" class="edge">
<title>Friends:e&#45;&gt;User:w</title>
<path fill="none" stroke="#29235c" stroke-width="3" d="M224.36,-373.77C257.55,-365.58 301.01,-356.32 339.45,-347.7 371.52,-340.51 407.28,-332.13 436.18,-326.2"/>
<polygon fill="#29235c" stroke="#29235c" stroke-width="3" points="436.98,-329.61 446.1,-324.21 435.61,-322.74 436.98,-329.61"/>
<text text-anchor="middle" x="437.21" y="-295.41" font-family="Helvetica,sans-Serif" font-size="32.00" fill="#29235c">1</text>
<text text-anchor="middle" x="218.13" y="-344.97" font-family="Helvetica,sans-Serif" font-size="32.00" fill="#29235c">*</text>
</g>
<!-- Friends&#45;&gt;User -->
<!-- Friends&#45;&gt;User -->
<g id="edge38" class="edge">
<title>Friends:e&#45;&gt;User:w</title>
<path fill="none" stroke="#29235c" stroke-width="3" d="M239.75,-403.05C270.33,-398.85 306.71,-391.04 339.45,-383.7 381.73,-374.22 430.41,-362.67 461.34,-348.84"/>
<polygon fill="#29235c" stroke="#29235c" stroke-width="3" points="462.87,-351.98 470.34,-344.47 459.82,-345.68 462.87,-351.98"/>
<text text-anchor="middle" x="461.45" y="-315.67" font-family="Helvetica,sans-Serif" font-size="32.00" fill="#29235c">1</text>
<text text-anchor="middle" x="245.97" y="-403.05" font-family="Helvetica,sans-Serif" font-size="32.00" fill="#29235c">*</text>
</g>
<!-- FriendRequests -->
<g id="FriendRequests" class="node">
<title>FriendRequests</title>
<ellipse fill="none" stroke="black" stroke-width="0" cx="169.72" cy="-320.7" rx="159.85" ry="27.31"/>
<text text-anchor="middle" x="169.72" y="-311.1" font-family="Helvetica,sans-Serif" font-size="32.00" fill="#29235c">FriendRequests</text>
</g>
<!-- FriendRequests&#45;&gt;User -->
<!-- FriendRequests&#45;&gt;User -->
<g id="edge40" class="edge">
<title>FriendRequests:e&#45;&gt;User:w</title>
<path fill="none" stroke="#29235c" stroke-width="3" d="M324.61,-313.96C364.55,-313.89 405.07,-314.38 436.31,-315.43"/>
<polygon fill="#29235c" stroke="#29235c" stroke-width="3" points="436.41,-318.93 446.53,-315.8 436.67,-311.94 436.41,-318.93"/>
<text text-anchor="middle" x="437.64" y="-287" font-family="Helvetica,sans-Serif" font-size="32.00" fill="#29235c">1</text>
<text text-anchor="middle" x="330.83" y="-285.16" font-family="Helvetica,sans-Serif" font-size="32.00" fill="#29235c">*</text>
</g>
<!-- FriendRequests&#45;&gt;User -->
<!-- FriendRequests&#45;&gt;User -->
<g id="edge42" class="edge">
<title>FriendRequests:e&#45;&gt;User:w</title>
<path fill="none" stroke="#29235c" stroke-width="3" d="M281.96,-340.07C336.52,-342.07 399.54,-340.68 442.33,-335.89"/>
<polygon fill="#29235c" stroke="#29235c" stroke-width="3" points="442.99,-339.34 452.49,-334.64 442.14,-332.39 442.99,-339.34"/>
<text text-anchor="middle" x="443.6" y="-344.24" font-family="Helvetica,sans-Serif" font-size="32.00" fill="#29235c">1</text>
<text text-anchor="middle" x="288.18" y="-349.67" font-family="Helvetica,sans-Serif" font-size="32.00" fill="#29235c">*</text>
</g>
</g>
</svg>
